<svg width="29" height="26" viewBox="0 0 29 26" fill="none" xmlns="http://www.w3.org/2000/svg">
<path d="M21.75 8.66665H20.5416V6.49998C20.5416 3.50998 17.835 1.08331 14.5 1.08331C11.165 1.08331 8.45831 3.50998 8.45831 6.49998V8.66665H7.24998C5.92081 8.66665 4.83331 9.64165 4.83331 10.8333V21.6666C4.83331 22.8583 5.92081 23.8333 7.24998 23.8333H21.75C23.0791 23.8333 24.1666 22.8583 24.1666 21.6666V10.8333C24.1666 9.64165 23.0791 8.66665 21.75 8.66665ZM14.5 18.4166C13.1708 18.4166 12.0833 17.4416 12.0833 16.25C12.0833 15.0583 13.1708 14.0833 14.5 14.0833C15.8291 14.0833 16.9166 15.0583 16.9166 16.25C16.9166 17.4416 15.8291 18.4166 14.5 18.4166ZM18.2458 8.66665H10.7541V6.49998C10.7541 4.64748 12.4337 3.14165 14.5 3.14165C16.5662 3.14165 18.2458 4.64748 18.2458 6.49998V8.66665Z" fill="#F8F8F8"/>
</svg>
