<svg width="24" height="25" viewBox="0 0 24 25" fill="none" xmlns="http://www.w3.org/2000/svg">
<path d="M12 0C5.376 0 0 5.6 0 12.5C0 19.4 5.376 25 12 25C18.624 25 24 19.4 24 12.5C24 5.6 18.624 0 12 0ZM12 5C14.316 5 16.2 6.9625 16.2 9.375C16.2 11.7875 14.316 13.75 12 13.75C9.684 13.75 7.8 11.7875 7.8 9.375C7.8 6.9625 9.684 5 12 5ZM12 22.5C9.564 22.5 6.684 21.475 4.632 18.9C6.73393 17.1821 9.32834 16.2485 12 16.2485C14.6717 16.2485 17.2661 17.1821 19.368 18.9C17.316 21.475 14.436 22.5 12 22.5Z" fill="#F8F8F8"/>
</svg>
